<svg xmlns="http://www.w3.org/2000/svg" width="712.1" height="101.3"><path fill="red" d="M373.3 66.2c-.1 4.9-1.7 9.7-4.6 13.7-2.9 3.8-7.2 5.7-12.9 5.7-1.8 0-3.5-.5-4.9-1.6a8.06 8.06 0 0 1-2.9-4.5c-.9 1.8-2.3 3.4-4 4.5-1.7 1-3.6 1.5-5.6 1.5-3.2.1-6.2-1.6-7.9-4.3-1.8-2.9-2.5-6.7-2-11.4.6-6.2 2.4-11.1 5.2-14.8s6.4-5.6 10.5-5.6c2.3-.1 4.6.2 6.8 1 2 .8 3.9 1.7 5.6 2.9l-.1.2h.2l-1.8 20.8c-.2 2.3 0 3.8.5 4.7.4.8 1.2 1.3 2.1 1.3 2.8 0 5.4-1.5 6.7-4 1.8-3 2.8-6.5 2.8-10 .4-8.6-1.3-15.2-5-20-3.7-4.8-9.4-7.2-17.1-7.2-7.4 0-13.2 2.6-17.6 7.7s-6.7 12.1-7.1 20.7c-.4 8.6 1.3 15.4 5.3 20.4 4 5 9.7 7.5 17.1 7.4 2.1 0 4.3-.3 6.4-.7 1.9-.4 3.8-1 5.6-1.8l1.4 5.3c-1.9 1.1-4 1.9-6.2 2.4-2.4.6-4.9.8-7.4.8-9.6 0-17-3-22.2-9.1-5.2-6-7.6-14.3-7.2-24.8.4-10.3 3.5-18.6 9.3-24.8 5.7-6.2 13.3-9.3 22.8-9.3 9.4 0 16.6 2.9 21.6 8.8 4.7 5.9 7 13.9 6.6 24.1zm-36.7 3.5c-.3 2.4-.1 4.8.7 7 .5 1.4 1.8 2.4 3.4 2.4 1.3 0 2.6-.3 3.7-1 1.3-.9 2.4-2.1 3-3.5v-.4l1.6-18c-.6-.2-1.1-.3-1.7-.4-.6-.1-1.2-.1-1.7-.2-2.5-.1-4.9 1.3-6.1 3.5-1.5 2.4-2.5 5.9-2.9 10.6z"/><path d="M392.7 48.3l-5.3 5.3-42.8-42.8-42.3 42.4-5.3-5.3L344.6.3l5.3 5.2 15.9 15.9V0h7.4v28.8zM1.4 41.1c-.4.1-.8-.2-.9-.6V27.8c0-.5.3-.7.9-.7h47.3c.6 0 .8.2.8.7v12.4c.1.4-.2.8-.6.9H1.4zM19 100.2c-.4.1-.8-.2-.9-.7V47.2c-.1-.4.2-.8.6-.9h12.5c.5 0 .8.3.8.9v52.1c0 .6-.3.9-.8.9H19zm40.3 0c-.4.1-.8-.2-.9-.6V27.8c0-.5.3-.7.9-.7h12.5c.4 0 .7.2.7.6v71.7c0 .6-.2.9-.7.8H59.3zM109.1 50c0 3.2-.5 6.4-1.7 9.3-1.1 2.7-2.7 5.1-4.8 7.2-2.1 2-4.6 3.5-7.3 4.5a26.3 26.3 0 0 1-9.2 1.7h-7.2c-.4.1-.8-.2-.9-.6V59.8c-.1-.4.2-.8.7-.9h7.6c3.1 0 5.5-.9 7.1-2.7 1.6-1.8 2.5-4.1 2.4-6.5 0-2.3-.8-4.5-2.4-6.2-1.6-1.7-4-2.6-7.1-2.6h-7.4c-.4.1-.8-.2-.9-.6V27.8c0-.5.3-.7.9-.7H86c3.2 0 6.3.5 9.3 1.7 2.7 1 5.2 2.6 7.3 4.6 2.1 2 3.7 4.4 4.8 7.1 1.2 3 1.8 6.1 1.7 9.3v.2zM135 74c-.1.4-.5.6-.9.5-.2-.1-.4-.3-.5-.5l-21-45.9c-.1-.2-.1-.5 0-.7.2-.2.5-.3.8-.3h14c.3 0 .6.2.8.5l13.6 30.3c.2.1.2.4.1.6 0 0 0 .1-.1.1L135 74zm-3.1 26.2c-.8 0-1-.4-.8-1.2L160 27.6c.1-.3.4-.5.8-.5h13c.8 0 1 .4.8 1.1l-28.7 71.5c-.1.3-.4.5-.8.5h-13.2zm52.3 0c-.5 0-.8-.3-.8-.8V27.8c0-.4.2-.7.6-.7h12.7c.6 0 .9.2.9.7v71.5c.1.4-.2.8-.7.8h-.2l-12.5.1zm52.2-22.7c0 3.2-.5 6.4-1.7 9.3a20.29 20.29 0 0 1-12.1 11.6c-3 1.1-6.1 1.6-9.3 1.6h-9.6c-.4.1-.8-.2-.9-.6V87.7c-.1-.4.2-.8.6-.9h10.1c2.7.2 5.3-.9 7.1-2.9 1.6-1.9 2.5-4.2 2.5-6.7 0-2.3-.8-4.6-2.4-6.4-1.6-1.9-4-2.8-7.1-2.8h-9.9c-.4.1-.8-.2-.9-.6v-12c-.1-.4.2-.8.7-.9h9.8c3.2 0 6.3.5 9.3 1.7 2.7 1 5.2 2.6 7.3 4.6 2.1 2 3.7 4.4 4.8 7.1 1.2 3 1.8 6.1 1.7 9.3v.3zm-32-36.4c-.4.1-.8-.2-.9-.7V27.8c0-.5.3-.7.9-.7h23.7c.6 0 .9.2.9.7v12.4c.1.4-.2.8-.6.9h-24zm56 46.3c-.6 2-1.2 4-1.9 6.1-.7 2-1.3 4.1-1.9 6.1-.1.4-.5.7-.9.7h-12.9c-.3 0-.6-.1-.8-.3-.2-.2-.2-.5-.1-.8L261.8 35c.1-.5.6-.7 1.1-.6.3.1.5.3.6.6l6.5 20.7-5.7 17.7h10.3c.4 0 .8.2.9.6l3.7 12.3c.1.2.1.5 0 .8-.2.2-.5.3-.8.3h-18zm29.4 12.8c-.4 0-.6-.2-.8-.7l-21.9-71.7c-.1-.2-.1-.5 0-.6.2-.2.5-.3.8-.3h12.6c.4 0 .8.3.9.7l22.2 71.6c.1.7-.1 1.1-.9 1.1h-12.9zm109.3 0c-.4.1-.8-.2-.9-.7V27.8c0-.5.3-.7.9-.7h12.8c.6 0 .9.2.9.7v71.5c.1.4-.2.8-.7.8h-.2l-12.8.1zm20.1-59.1c-.4.1-.8-.2-.9-.7V27.8c0-.5.3-.7.9-.7h27.7c.6 0 .9.2.9.7v12.4c.1.4-.2.8-.6.9h-28zm43.2 46.3c-.6 2-1.2 4-1.9 6.1-.7 2-1.3 4.1-1.9 6.1-.1.4-.5.7-.9.7h-12.9c-.3 0-.6-.1-.8-.3-.2-.2-.2-.5 0-.8L463.8 35c.1-.5.6-.7 1.1-.6.3.1.5.3.6.6l6.5 20.7-5.7 17.7h10.3c.4 0 .8.2.9.6l3.7 12.3c.1.2.1.5 0 .8-.2.2-.5.3-.8.3h-18zm29.4 12.8c-.4 0-.6-.2-.8-.7l-21.9-71.7c-.1-.2-.1-.5 0-.6.2-.2.5-.3.8-.3h12.6c.4 0 .8.3.9.7l22.2 71.6c.1.7-.1 1.1-.9 1.1h-12.9zm24.5.1c-.4.1-.8-.2-.9-.7v-7.7l45-64.6.3-.3c.1 0 .3-.1.4 0h10.5c.6 0 .8.3.8.8v8.7L528 99.9c-.2.2-.5.4-.8.3h-10.9zm.7-19.9c-.2.3-.6.5-1 .3-.4-.1-.6-.5-.5-.8V27.8c0-.5.3-.8.9-.8h12.3c.6 0 .9.3.9.8v34.8L517 80.4zm26.6-56.3c-2.2.1-4.5-.4-6.5-1.2-1.8-.8-3.4-1.9-4.6-3.4-1.3-1.5-2.2-3.3-2.8-5.1-.7-2.1-1-4.2-1-6.4 0-.3.1-.5.4-.5h9.8c.3 0 .5.1.5.4v.2c-.1 2.3.3 3.9 1.1 4.9 1.5 1.7 4.1 1.9 5.8.4.2-.1.3-.3.4-.4.8-1 1.2-2.6 1.2-4.8 0-.3.1-.5.4-.5h9.7c.3 0 .5.1.5.4v.1c0 2.2-.3 4.3-1 6.4-.6 1.9-1.6 3.6-2.8 5.1a12.1 12.1 0 0 1-4.7 3.4c-2 .6-4.2 1-6.4 1zm15.6 76.2c-.5 0-.8-.3-.8-.9V65.7L571 48c.2-.3.6-.5 1-.3.4.1.6.5.6.8v50.9c.1.4-.2.8-.6.9h-12.8zm27.8-.1c-.5 0-.8-.3-.8-.8V27.8c0-.4.2-.7.6-.7h12.7c.6 0 .8.2.8.7v71.5c.1.4-.2.8-.7.8h-.2l-12.4.1zm15.2-42c-.2-.3-.2-.8.1-1l27.2-29.9c.2-.1.3-.2.5-.3h15.7c.3 0 .6.1.8.4.2.3.1.5-.2.8l-36 39.8c-.5.5-1 .5-1.4 0l-6.7-9.8zm19.4 5.7c.6-.6 1-.5 1.4.1l23.3 34.9c.2.3.2.6 0 .9-.2.2-.5.4-.8.4h-14.8a.9.9 0 0 1-.8-.4l-17-25.7c-.2-.3-.2-.8.1-1l8.6-9.2zm46.7 23.5c-.6 2-1.2 4-1.9 6.1-.7 2-1.3 4.1-1.9 6.1-.1.4-.5.7-.9.7h-12.9c-.3 0-.6-.1-.8-.3-.2-.2-.2-.5 0-.8L669.6 35c.1-.5.6-.7 1.1-.6.3.1.5.3.6.6l6.5 20.8-5.7 17.7h10.3c.4 0 .8.2.9.6l3.7 12.3c.1.2.1.5 0 .8-.2.2-.5.3-.8.3l-17.9-.1zm29.4 12.8c-.4 0-.6-.2-.8-.7L675 27.8c-.1-.2-.1-.5 0-.6.2-.2.5-.3.8-.3h12.6c.4 0 .8.3.9.7l22.2 71.6c.1.7-.1 1.1-.9 1.1h-12.9z" class="st1"/></svg>