<svg xmlns="http://www.w3.org/2000/svg" width="600" height="600" viewBox="0 0 600 600"><path fill="#FEFEFE" d="M278.506 658.408c-86.842 0-173.717-1.354-260.509.736-30.261.729-43.003-1.088-42.44-38.487 2.692-178.907 1.947-357.883.487-536.818-.246-30.191 1.071-42.991 38.471-42.428 178.907 2.692 357.883 1.947 536.818.487 30.191-.246 42.991 1.071 42.428 38.471-2.692 178.907-3.507 357.927.429 536.788.969 44.04-16.341 42.234-47.272 41.748-89.45-1.405-178.938-.497-268.412-.497zm65.562-473.682c-99.684-.766-114.904 17.837-90.437 125.107 12.218 53.568 6.58 69.301-50.678 44.936-55.982-23.821-98.168 4.585-113.492 67.871-19.143 79.058 9.275 146.713 65.185 155.072 16.049 2.399 34.176 2.957 44.084-10.065 32.044-42.115 64.793-23.263 103.471-9.883 73.4 25.393 115.48-7.603 116.31-86.374.552-52.412 3.913-101.976 24.802-152.826 28.142-68.505-24.424-133.263-99.245-133.838z"/><path fill="#FDFDFD" d="M344.068 184.726c74.821.575 127.387 65.333 99.246 133.837-20.889 50.85-24.25 100.414-24.802 152.826-.83 78.771-42.91 111.766-116.31 86.374-38.678-13.38-71.427-32.232-103.471 9.883-9.908 13.023-28.035 12.465-44.084 10.065-55.91-8.358-84.328-76.013-65.185-155.072 15.324-63.286 57.51-91.692 113.492-67.871 57.258 24.364 62.897 8.631 50.678-44.936-24.467-107.269-9.248-125.872 90.436-125.106z"/></svg>